# xmcd
#
# Track frame offsets: 
#        150
#        14962
#        33312
#        48562
#        64500
#        72975
#        83475
#        95650
#        107775
#        119200
#        129712
#        142175
#        151700
#        162025
#        175787
#        188025
#
# Disc length: 2673 seconds
#
# Revision: 3
# Processed by: cddbd v1.5.2PL0 Copyright (c) Steve Scherf et al.
# Submitted via: ExactAudioCopy v1.0b1
#
DISCID=e10a6f10
DTITLE=Various Artist - Country And Western Classcis Vol4 CD2
DYEAR=1900
DGENRE=Country
TTITLE0=Olivia Newton-John - Take Me Home Country Roads
TTITLE1=Bellamy Brothers - Satin Sheets
TTITLE2=Eddie Rabbit - Pour Me Another Tequila
TTITLE3=New Christy Minstrels - Cotton Fields
TTITLE4=Roger Miller - England Swings
TTITLE5=Dean Marton - King Of The Road
TTITLE6=Joe Tex - Skip A Rope
TTITLE7=Glen Campbell - By The Time I Get To Phoenix
TTITLE8=John D. Loudermilk - The Great Snowman
TTITLE9=Lee Hazlewood - Home I'm Home
TTITLE10=Sammy Davis Jr. - What I've Got In Mind
TTITLE11=Shaklefords - Five Feet High And Risin'
TTITLE12=Bobby Darin - 18 Yellow Roses
TTITLE13=The Brothers Four - Greenfields
TTITLE14=Perry Como - Don't Let The Stars Get In Your Eyes
TTITLE15=Joe Tex - Detroit City
EXTD=
EXTT0=Olivia Newton-John
EXTT1=Bellamy Brothers
EXTT2=Eddie Rabbit
EXTT3=New Christy Minstrels
EXTT4=Roger Miller
EXTT5=Dean Martin
EXTT6=Joe Tex
EXTT7=Glenn Campbell
EXTT8=John D. Loudermilk
EXTT9=Lee Hazlewood
EXTT10=Sammy Davis Jr.
EXTT11=Shaklefords
EXTT12=Bobby Darin
EXTT13=The Brothers Four
EXTT14=Perry Como
EXTT15=Joe Tex
PLAYORDER=
